<mxfile host="app.diagrams.net" modified="2021-03-24T00:12:22.325Z" agent="5.0 (Macintosh; Intel Mac OS X 10_15_7) AppleWebKit/537.36 (KHTML, like Gecko) Chrome/86.0.4240.75 Safari/537.36" etag="1R9NPD74gKseZ40fcxe6" version="14.5.1" type="github">
  <diagram name="Page-1" id="e56a1550-8fbb-45ad-956c-1786394a9013">
    <mxGraphModel dx="2523" dy="623" grid="1" gridSize="10" guides="1" tooltips="1" connect="1" arrows="1" fold="1" page="1" pageScale="1" pageWidth="1100" pageHeight="850" background="#ffffff" math="0" shadow="0">
      <root>
        <mxCell id="0" />
        <mxCell id="1" parent="0" />
        <mxCell id="2e49270ec7c68f3f-19" value="Salesforce" style="swimlane;html=1;fontStyle=0;childLayout=stackLayout;horizontal=1;startSize=26;fillColor=#e0e0e0;horizontalStack=0;resizeParent=1;resizeLast=0;collapsible=1;marginBottom=0;swimlaneFillColor=#ffffff;align=center;rounded=0;shadow=0;comic=0;labelBackgroundColor=none;strokeWidth=1;fontFamily=Verdana;fontSize=14" parent="1" vertex="1">
          <mxGeometry x="120" y="380" width="170" height="144" as="geometry" />
        </mxCell>
        <mxCell id="OAfT1xc3Pn67IeU7BMI9-13" value="Collect Data and prepare for&amp;nbsp;&lt;br&gt;Data Import to the Client worker object (child)" style="text;html=1;strokeColor=none;fillColor=none;align=center;verticalAlign=middle;whiteSpace=wrap;rounded=0;" vertex="1" parent="2e49270ec7c68f3f-19">
          <mxGeometry y="26" width="170" height="114" as="geometry" />
        </mxCell>
        <mxCell id="2e49270ec7c68f3f-41" value="Worker Object (Parent)" style="swimlane;html=1;fontStyle=0;childLayout=stackLayout;horizontal=1;startSize=26;fillColor=#e0e0e0;horizontalStack=0;resizeParent=1;resizeLast=0;collapsible=1;marginBottom=0;swimlaneFillColor=#ffffff;align=center;rounded=0;shadow=0;comic=0;labelBackgroundColor=none;strokeWidth=1;fontFamily=Verdana;fontSize=14" parent="1" vertex="1">
          <mxGeometry x="600" y="258" width="170" height="122" as="geometry" />
        </mxCell>
        <mxCell id="2e49270ec7c68f3f-71" value="Supplier Worker(Child)" style="swimlane;html=1;fontStyle=0;childLayout=stackLayout;horizontal=1;startSize=26;fillColor=#e0e0e0;horizontalStack=0;resizeParent=1;resizeLast=0;collapsible=1;marginBottom=0;swimlaneFillColor=#ffffff;align=center;rounded=0;shadow=0;comic=0;labelBackgroundColor=none;strokeWidth=1;fontFamily=Verdana;fontSize=14" parent="1" vertex="1">
          <mxGeometry x="600" y="534" width="170" height="126" as="geometry" />
        </mxCell>
        <mxCell id="2e49270ec7c68f3f-80" value="Client&amp;nbsp;" style="swimlane;html=1;fontStyle=0;childLayout=stackLayout;horizontal=1;startSize=26;fillColor=#e0e0e0;horizontalStack=0;resizeParent=1;resizeLast=0;collapsible=1;marginBottom=0;swimlaneFillColor=#ffffff;align=center;rounded=0;shadow=0;comic=0;labelBackgroundColor=none;strokeWidth=1;fontFamily=Verdana;fontSize=14" parent="1" vertex="1">
          <mxGeometry x="-130" y="186" width="160" height="144" as="geometry" />
        </mxCell>
        <mxCell id="OAfT1xc3Pn67IeU7BMI9-4" value="Worker Spreedsheet downloaded by client / filled out and uploaded by client&lt;br&gt;to the client portal" style="text;html=1;strokeColor=none;fillColor=none;align=center;verticalAlign=middle;whiteSpace=wrap;rounded=0;" vertex="1" parent="2e49270ec7c68f3f-80">
          <mxGeometry y="26" width="160" height="114" as="geometry" />
        </mxCell>
        <mxCell id="OAfT1xc3Pn67IeU7BMI9-11" style="edgeStyle=orthogonalEdgeStyle;rounded=0;orthogonalLoop=1;jettySize=auto;html=1;" edge="1" parent="1" source="OAfT1xc3Pn67IeU7BMI9-5">
          <mxGeometry relative="1" as="geometry">
            <mxPoint x="120" y="452" as="targetPoint" />
            <Array as="points">
              <mxPoint x="60" y="452" />
              <mxPoint x="60" y="452" />
            </Array>
          </mxGeometry>
        </mxCell>
        <mxCell id="OAfT1xc3Pn67IeU7BMI9-5" value="Client Portal&amp;nbsp;" style="swimlane;html=1;fontStyle=0;childLayout=stackLayout;horizontal=1;startSize=26;fillColor=#e0e0e0;horizontalStack=0;resizeParent=1;resizeLast=0;collapsible=1;marginBottom=0;swimlaneFillColor=#ffffff;align=center;rounded=0;shadow=0;comic=0;labelBackgroundColor=none;strokeWidth=1;fontFamily=Verdana;fontSize=14" vertex="1" parent="1">
          <mxGeometry x="-130" y="380" width="160" height="144" as="geometry" />
        </mxCell>
        <mxCell id="OAfT1xc3Pn67IeU7BMI9-12" value="Spreadsheet uploaded to&amp;nbsp;&lt;br&gt;G Drive&amp;nbsp;" style="text;html=1;strokeColor=none;fillColor=none;align=center;verticalAlign=middle;whiteSpace=wrap;rounded=0;" vertex="1" parent="OAfT1xc3Pn67IeU7BMI9-5">
          <mxGeometry y="26" width="160" height="114" as="geometry" />
        </mxCell>
        <mxCell id="OAfT1xc3Pn67IeU7BMI9-10" style="edgeStyle=orthogonalEdgeStyle;rounded=0;orthogonalLoop=1;jettySize=auto;html=1;entryX=0.5;entryY=0;entryDx=0;entryDy=0;" edge="1" parent="1" source="OAfT1xc3Pn67IeU7BMI9-4" target="OAfT1xc3Pn67IeU7BMI9-5">
          <mxGeometry relative="1" as="geometry" />
        </mxCell>
        <mxCell id="OAfT1xc3Pn67IeU7BMI9-17" style="edgeStyle=orthogonalEdgeStyle;rounded=0;orthogonalLoop=1;jettySize=auto;html=1;entryX=0.5;entryY=1;entryDx=0;entryDy=0;" edge="1" parent="1" source="OAfT1xc3Pn67IeU7BMI9-15" target="2e49270ec7c68f3f-41">
          <mxGeometry relative="1" as="geometry" />
        </mxCell>
        <mxCell id="OAfT1xc3Pn67IeU7BMI9-18" style="edgeStyle=orthogonalEdgeStyle;rounded=0;orthogonalLoop=1;jettySize=auto;html=1;exitX=1;exitY=0.5;exitDx=0;exitDy=0;entryX=0.5;entryY=0;entryDx=0;entryDy=0;" edge="1" parent="1" source="OAfT1xc3Pn67IeU7BMI9-15" target="2e49270ec7c68f3f-71">
          <mxGeometry relative="1" as="geometry" />
        </mxCell>
        <mxCell id="OAfT1xc3Pn67IeU7BMI9-15" value="Worker Object (Parent)" style="swimlane;html=1;fontStyle=0;childLayout=stackLayout;horizontal=1;startSize=26;fillColor=#e0e0e0;horizontalStack=0;resizeParent=1;resizeLast=0;collapsible=1;marginBottom=0;swimlaneFillColor=#ffffff;align=center;rounded=0;shadow=0;comic=0;labelBackgroundColor=none;strokeWidth=1;fontFamily=Verdana;fontSize=14" vertex="1" parent="1">
          <mxGeometry x="370" y="391" width="170" height="122" as="geometry" />
        </mxCell>
        <mxCell id="OAfT1xc3Pn67IeU7BMI9-16" style="edgeStyle=orthogonalEdgeStyle;rounded=0;orthogonalLoop=1;jettySize=auto;html=1;" edge="1" parent="1" source="OAfT1xc3Pn67IeU7BMI9-13">
          <mxGeometry relative="1" as="geometry">
            <mxPoint x="370" y="463" as="targetPoint" />
          </mxGeometry>
        </mxCell>
        <mxCell id="OAfT1xc3Pn67IeU7BMI9-20" value="" style="shape=flexArrow;endArrow=classic;html=1;exitX=-0.024;exitY=0.383;exitDx=0;exitDy=0;exitPerimeter=0;fillColor=#dae8fc;strokeColor=#6c8ebf;" edge="1" parent="1" source="OAfT1xc3Pn67IeU7BMI9-19">
          <mxGeometry width="50" height="50" relative="1" as="geometry">
            <mxPoint x="520" y="460" as="sourcePoint" />
            <mxPoint x="450" y="390" as="targetPoint" />
          </mxGeometry>
        </mxCell>
        <mxCell id="OAfT1xc3Pn67IeU7BMI9-19" value="SF Worker ID (Unique ID)&lt;br&gt;" style="text;html=1;strokeColor=none;fillColor=none;align=center;verticalAlign=middle;whiteSpace=wrap;rounded=0;" vertex="1" parent="1">
          <mxGeometry x="600" y="286" width="170" height="94" as="geometry" />
        </mxCell>
        <mxCell id="OAfT1xc3Pn67IeU7BMI9-21" value="" style="shape=flexArrow;endArrow=classic;html=1;strokeColor=#6c8ebf;exitX=0.918;exitY=1.032;exitDx=0;exitDy=0;exitPerimeter=0;entryX=0.924;entryY=0;entryDx=0;entryDy=0;entryPerimeter=0;fillColor=#dae8fc;" edge="1" parent="1" source="OAfT1xc3Pn67IeU7BMI9-19" target="2e49270ec7c68f3f-71">
          <mxGeometry width="50" height="50" relative="1" as="geometry">
            <mxPoint x="520" y="460" as="sourcePoint" />
            <mxPoint x="570" y="410" as="targetPoint" />
          </mxGeometry>
        </mxCell>
        <mxCell id="OAfT1xc3Pn67IeU7BMI9-22" value="" style="shape=flexArrow;endArrow=classic;html=1;strokeColor=#6c8ebf;fillColor=#dae8fc;entryX=1.021;entryY=0.158;entryDx=0;entryDy=0;entryPerimeter=0;" edge="1" parent="1" target="OAfT1xc3Pn67IeU7BMI9-23">
          <mxGeometry width="50" height="50" relative="1" as="geometry">
            <mxPoint x="-180" y="690" as="sourcePoint" />
            <mxPoint x="-90" y="690" as="targetPoint" />
          </mxGeometry>
        </mxCell>
        <mxCell id="OAfT1xc3Pn67IeU7BMI9-23" value="&lt;h1&gt;&lt;span&gt;data flow&amp;nbsp;&lt;/span&gt;&lt;br&gt;&lt;/h1&gt;&lt;div&gt;&lt;span&gt;Worker (Parent) works as the record with the latest data available, updated bi-directional from the child objects (Client Worker and Supplier worker&lt;/span&gt;&lt;/div&gt;" style="text;html=1;strokeColor=none;fillColor=none;spacing=5;spacingTop=-20;whiteSpace=wrap;overflow=hidden;rounded=0;" vertex="1" parent="1">
          <mxGeometry x="-300" y="670" width="190" height="120" as="geometry" />
        </mxCell>
      </root>
    </mxGraphModel>
  </diagram>
</mxfile>
